<svg width="36" height="36" fill="none" xmlns="http://www.w3.org/2000/svg"><g clip-path="url(#clip0_342_8910)" fill="#008BFF"><path fill-rule="evenodd" clip-rule="evenodd" d="M21.203 6.25a8.212 8.212 0 0110.733 4.446 8.212 8.212 0 01-1.781 8.952l-1.361 1.361L17.968 32.09 7.142 21.01l-1.361-1.362A8.214 8.214 0 0117.397 8.032l.57.57.571-.57a8.213 8.213 0 012.665-1.782zm3.143 1.625a5.963 5.963 0 00-4.217 1.747l-2.161 2.162-2.162-2.161a5.964 5.964 0 00-8.434 8.434l1.375 1.375 9.22 9.439 9.23-9.448 1.367-1.366a5.964 5.964 0 00-4.218-10.182z"/><path d="M22.064 8.33a5.963 5.963 0 017.793 7.792 5.98 5.98 0 01-1.293 1.935l-1.366 1.366-9.23 9.448-9.22-9.439-1.376-1.375a5.964 5.964 0 018.434-8.434l2.162 2.161 2.161-2.162a5.963 5.963 0 011.935-1.293z"/></g><defs><clipPath id="clip0_342_8910"><path fill="#fff" d="M0 0h36v36H0z"/></clipPath></defs></svg>