<svg width="16" height="17" fill="none" xmlns="http://www.w3.org/2000/svg"><path d="M8.777 2.826l2.884 2.826c.351.344.43.738.235 1.182-.194.444-.54.666-1.04.666H5.144c-.499 0-.845-.222-1.039-.666-.195-.444-.116-.838.235-1.182l2.884-2.826c.111-.109.232-.19.361-.244.13-.055.268-.082.416-.082a1.063 1.063 0 01.777.326zM7.223 14.174L4.34 11.348c-.351-.344-.43-.738-.235-1.182.194-.444.54-.666 1.04-.666h5.713c.499 0 .845.222 1.039.666.194.444.116.838-.235 1.182l-2.884 2.826A1.064 1.064 0 018 14.5a1.064 1.064 0 01-.777-.326z" fill="#fff"/></svg>