<svg width="36" height="36" viewBox="0 0 36 36" fill="none" xmlns="http://www.w3.org/2000/svg">
<path fill-rule="evenodd" clip-rule="evenodd" d="M21.2029 6.2505C22.1995 5.83755 23.2677 5.625 24.3465 5.625C25.4253 5.625 26.4935 5.83755 27.4902 6.2505C28.4868 6.66346 29.3923 7.26873 30.155 8.03173C30.9178 8.7943 31.5229 9.69967 31.9358 10.6961C32.3488 11.6928 32.5613 12.761 32.5613 13.8398C32.5613 14.9186 32.3488 15.9868 31.9358 16.9835C31.5229 17.98 30.9177 18.8854 30.1548 19.6481L28.7935 21.0093L17.9678 32.0903L7.14219 21.0094L5.78086 19.6481C4.24041 18.1076 3.375 16.0183 3.375 13.8398C3.375 11.6613 4.24041 9.57199 5.78086 8.03155C7.3213 6.4911 9.41059 5.62569 11.5891 5.62569C13.7676 5.62569 15.8569 6.4911 17.3974 8.03155L17.9678 8.602L18.5381 8.03173C19.3007 7.26882 20.2063 6.66343 21.2029 6.2505ZM24.3465 7.875C23.5633 7.875 22.7877 8.02932 22.0641 8.32913C21.3406 8.62895 20.6831 9.06839 20.1294 9.62235L17.9678 11.784L15.8064 9.62254C14.6879 8.50405 13.1709 7.87569 11.5891 7.87569C10.0073 7.87569 8.49034 8.50405 7.37185 9.62254C6.25336 10.741 5.625 12.258 5.625 13.8398C5.625 15.4216 6.25336 16.9386 7.37185 18.0571L8.74706 19.4323L17.9678 28.8706L27.1978 19.423L28.5638 18.0571C29.1177 17.5034 29.5574 16.8458 29.8572 16.1222C30.157 15.3986 30.3113 14.623 30.3113 13.8398C30.3113 13.0566 30.157 12.281 29.8572 11.5574C29.5574 10.8338 29.1179 10.1764 28.564 9.62272C28.0103 9.06876 27.3525 8.62895 26.6289 8.32913C25.9053 8.02932 25.1298 7.875 24.3465 7.875Z" fill="#008BFF"/>
<path d="M22.0641 8.32913C22.7877 8.02932 23.5633 7.875 24.3465 7.875C25.1298 7.875 25.9053 8.02932 26.6289 8.32913C27.3525 8.62895 28.0103 9.06876 28.564 9.62272C29.1179 10.1764 29.5574 10.8338 29.8572 11.5574C30.157 12.281 30.3113 13.0566 30.3113 13.8398C30.3113 14.623 30.157 15.3986 29.8572 16.1222C29.5574 16.8458 29.1177 17.5034 28.5638 18.0571L27.1978 19.423L17.9678 28.8706L8.74706 19.4323L7.37185 18.0571C6.25336 16.9386 5.625 15.4216 5.625 13.8398C5.625 12.258 6.25336 10.741 7.37185 9.62254C8.49034 8.50405 10.0073 7.87569 11.5891 7.87569C13.1709 7.87569 14.6879 8.50405 15.8064 9.62254L17.9678 11.784L20.1294 9.62235C20.6831 9.06839 21.3406 8.62895 22.0641 8.32913Z" fill="#008BFF"/>
</svg>
