<svg width="18" height="18" viewBox="0 0 18 18" fill="none" xmlns="http://www.w3.org/2000/svg">
<path fill-rule="evenodd" clip-rule="evenodd" d="M8.91787 1.7C4.93155 1.7 1.7 4.93155 1.7 8.91787C1.7 12.9042 4.93155 16.1357 8.91787 16.1357C12.9042 16.1357 16.1357 12.9042 16.1357 8.91787C16.1357 4.93155 12.9042 1.7 8.91787 1.7ZM0 8.91787C0 3.99267 3.99267 0 8.91787 0C13.8431 0 17.8357 3.99267 17.8357 8.91787C17.8357 13.8431 13.8431 17.8357 8.91787 17.8357C3.99267 17.8357 0 13.8431 0 8.91787ZM9.76796 4.58771V6.20127H8.06796V4.58771H9.76796ZM8.06796 13.2482V7.27697H9.76796V13.2482H8.06796Z" fill="#008BFF"/>
</svg>
