<svg width="16" height="17" viewBox="0 0 16 17" fill="none" xmlns="http://www.w3.org/2000/svg">
<path d="M4.1 5.5C3.86131 5.5 3.63239 5.40518 3.4636 5.2364C3.29482 5.06761 3.2 4.8387 3.2 4.6C3.2 4.36131 3.29482 4.13239 3.4636 3.9636C3.63239 3.79482 3.86131 3.7 4.1 3.7C4.3387 3.7 4.56761 3.79482 4.7364 3.9636C4.90518 4.13239 5 4.36131 5 4.6C5 4.8387 4.90518 5.06761 4.7364 5.2364C4.56761 5.40518 4.3387 5.5 4.1 5.5ZM13.646 8.248L8.246 2.848C8.03 2.632 7.73 2.5 7.4 2.5H3.2C2.534 2.5 2 3.034 2 3.7V7.9C2 8.23 2.132 8.53 2.354 8.746L7.748 14.146C7.97 14.362 8.27 14.5 8.6 14.5C8.93 14.5 9.23 14.362 9.446 14.146L13.646 9.946C13.868 9.73 14 9.43 14 9.1C14 8.764 13.862 8.464 13.646 8.248Z" fill="white"/>
</svg>
