<svg width="16" height="17" viewBox="0 0 16 17" fill="none" xmlns="http://www.w3.org/2000/svg">
<path d="M8.77654 2.82609L11.6608 5.65217C12.0121 5.99638 12.0905 6.39022 11.896 6.8337C11.7023 7.2779 11.3558 7.5 10.8566 7.5L5.14343 7.5C4.64423 7.5 4.29774 7.2779 4.10397 6.8337C3.90947 6.39022 3.98786 5.99638 4.33916 5.65217L7.22346 2.82609C7.33439 2.71739 7.45457 2.63587 7.584 2.58152C7.71342 2.52717 7.85209 2.5 8 2.5C8.14791 2.5 8.28658 2.52717 8.41601 2.58152C8.54543 2.63587 8.66561 2.71739 8.77654 2.82609Z" fill="white"/>
<path d="M7.22346 14.1739L4.33915 11.3478C3.98786 11.0036 3.90947 10.6098 4.10397 10.1663C4.29774 9.7221 4.64423 9.5 5.14343 9.5H10.8566C11.3558 9.5 11.7023 9.7221 11.896 10.1663C12.0905 10.6098 12.0121 11.0036 11.6608 11.3478L8.77654 14.1739C8.66561 14.2826 8.54543 14.3641 8.416 14.4185C8.28658 14.4728 8.14791 14.5 8 14.5C7.85209 14.5 7.71342 14.4728 7.58399 14.4185C7.45457 14.3641 7.33439 14.2826 7.22346 14.1739Z" fill="white"/>
</svg>
