<svg width="20" height="20" viewBox="0 0 20 20" fill="none" xmlns="http://www.w3.org/2000/svg">
<path fill-rule="evenodd" clip-rule="evenodd" d="M9.14241 15.1758L9.14241 4.90114L5.63073 8.41281L4.42865 7.21073L9.39137 2.24801L9.99241 1.64697L10.5934 2.24801L15.5562 7.21073L14.3541 8.41281L10.8424 4.90114L10.8424 15.1758H9.14241ZM2.17773 15.926L2.17773 13.1836H3.87773L3.87773 15.926C3.87773 16.2849 4.16875 16.576 4.52773 16.576L15.4554 16.576C15.8144 16.576 16.1054 16.2849 16.1054 15.926L16.1054 13.1836H17.8054L17.8054 15.926C17.8054 17.2238 16.7532 18.276 15.4554 18.276L4.52773 18.276C3.22987 18.276 2.17773 17.2238 2.17773 15.926Z" fill="#008BFF"/>
</svg>
